<?xml version="1.0" standalone="no"?>
<!DOCTYPE svg PUBLIC "-//W3C//DTD SVG 20010904//EN"
 "http://www.w3.org/TR/2001/REC-SVG-20010904/DTD/svg10.dtd">
<svg version="1.0" xmlns="http://www.w3.org/2000/svg"
 width="512.000000pt" height="512.000000pt" viewBox="0 0 512.000000 512.000000"
 preserveAspectRatio="xMidYMid meet">
<metadata>
Created by potrace 1.14, written by Peter Selinger 2001-2017
</metadata>
<g transform="translate(0.000000,512.000000) scale(0.100000,-0.100000)"
fill="#000000" stroke="none">
<path d="M3320 5113 c-184 -26 -367 -94 -526 -195 -61 -38 -72 -42 -146 -53
-88 -13 -289 -49 -338 -60 -14 -3 -40 -8 -59 -11 -18 -3 -41 -7 -50 -9 -9 -2
-70 -16 -135 -29 -66 -14 -158 -35 -205 -47 -47 -11 -93 -22 -101 -24 -8 -1
-69 -17 -135 -35 -66 -18 -129 -34 -140 -36 -92 -17 -330 -91 -388 -120 -80
-40 -202 -128 -244 -178 -66 -77 -77 -92 -114 -149 -21 -33 -39 -66 -39 -73 0
-7 -3 -14 -7 -16 -9 -4 -52 -122 -59 -164 -3 -16 -16 -72 -29 -124 -21 -85
-110 -468 -119 -516 -2 -10 -11 -46 -19 -79 -9 -33 -18 -71 -21 -85 -2 -14
-28 -126 -56 -250 -28 -124 -53 -232 -55 -240 -2 -8 -10 -45 -19 -81 -8 -37
-17 -78 -20 -90 -2 -13 -19 -87 -36 -164 -39 -174 -29 -127 -89 -420 -28 -138
-53 -268 -56 -290 -3 -22 -10 -65 -16 -95 -34 -197 -32 -641 3 -740 3 -8 16
-44 28 -80 33 -96 70 -162 167 -300 77 -109 270 -236 452 -299 229 -79 514
-75 692 9 110 53 140 73 214 145 55 54 81 89 113 155 118 242 141 544 59 762
-30 79 -56 118 -117 175 l-44 42 -31 -18 c-16 -10 -77 -44 -135 -76 -58 -32
-107 -59 -108 -61 -2 -1 8 -35 21 -76 87 -253 35 -412 -157 -483 -67 -25 -151
-24 -202 3 -170 88 -244 380 -169 677 13 52 70 191 85 205 3 3 21 30 41 60 47
73 158 185 239 242 121 86 151 97 346 123 32 5 284 18 342 18 29 0 33 3 27 21
-3 12 -7 28 -9 36 -2 8 -9 33 -14 55 -33 124 -68 341 -78 485 -13 163 -23 144
84 145 92 0 92 0 93 -25 1 -14 2 -36 4 -50 1 -14 5 -61 9 -105 4 -44 9 -89 11
-100 5 -23 14 -83 21 -135 6 -44 30 -166 51 -250 24 -100 119 -334 179 -442
55 -100 153 -255 176 -279 7 -8 26 -32 43 -54 54 -72 173 -182 247 -228 110
-69 197 -89 393 -93 273 -4 541 50 855 173 317 125 506 258 572 403 46 101 66
150 61 150 -3 0 -1 6 5 12 9 12 83 227 81 238 0 3 5 19 11 35 15 37 48 144 65
210 7 28 23 86 35 130 12 44 24 89 26 100 2 11 19 88 38 170 19 83 38 165 41
183 3 17 7 47 10 65 3 17 8 39 10 47 9 33 42 267 53 379 9 97 9 453 0 506 -4
22 -9 51 -12 65 -3 14 -9 41 -13 60 -15 84 -125 317 -208 446 -94 144 -302
367 -430 462 -38 28 -75 56 -81 61 -35 29 -206 124 -289 160 -182 80 -328 113
-520 115 -77 1 -151 1 -165 -1z m-1632 -1582 c1 -1 5 -1 10 -2 4 -1 21 -11 37
-22 117 -82 127 -247 20 -334 -177 -147 -426 66 -309 264 24 42 78 85 120 96
15 4 109 2 122 -2z"/>
</g>
</svg>
